<svg width="79" height="117" viewBox="0 0 79 117" fill="none" xmlns="http://www.w3.org/2000/svg">
<path d="M37.0876 91.8255L37.5215 92.4589L37.9254 91.8059C38.6287 90.6687 39.4856 89.7672 40.5576 89.0435L40.5576 89.0435C44.6989 86.2469 50.5272 87.3923 53.1638 91.5055L53.1639 91.5056C54.7651 94.0019 54.8367 96.6349 53.8592 99.3909L53.8591 99.3911C53.1075 101.513 51.7552 103.322 50.2056 105.069L50.2055 105.069C47.6445 107.956 44.7185 110.501 41.6698 112.953L41.6698 112.953C40.6004 113.813 39.5383 114.683 38.4665 115.56C38.1435 115.824 37.8195 116.09 37.4942 116.356C37.4409 116.312 37.3877 116.27 37.3346 116.227C37.0078 115.963 36.6857 115.703 36.3656 115.437C35.623 114.816 34.8792 114.199 34.1363 113.582C32.3213 112.076 30.5109 110.574 28.7335 109.033L28.7334 109.033C26.8992 107.442 25.2181 105.703 23.7249 103.814C22.3418 102.064 21.2093 100.249 20.7577 98.1527L20.7576 98.1521C20.3739 96.3811 20.4155 94.7607 20.9045 93.3055C21.3927 91.8525 22.3381 90.5304 23.8169 89.3707C27.8821 86.1827 34.0399 87.197 36.8292 91.4424C36.9027 91.5555 36.9783 91.6657 37.0872 91.8248L37.0876 91.8255Z" stroke="url(#paint0_linear)"/>
<path d="M13.0884 3.76663L13.5215 4.39496L13.9246 3.74707C14.4588 2.88875 15.1085 2.20965 15.9214 1.66419L15.9215 1.66415C19.0663 -0.446399 23.4907 0.421567 25.488 3.51833L25.4881 3.51845C26.6997 5.39565 26.7568 7.37438 26.0125 9.45975L26.0125 9.45995C25.4404 11.065 24.4093 12.4387 23.217 13.7742L23.2169 13.7742C21.2476 15.9807 18.9963 17.9274 16.6463 19.8055L16.6462 19.8055C15.8208 20.4652 15.0008 21.1324 14.1738 21.8053C13.9482 21.9888 13.722 22.1728 13.4951 22.3572C13.4774 22.343 13.4598 22.3288 13.4422 22.3147C13.1903 22.1127 12.9428 21.9143 12.6963 21.7104C12.123 21.2341 11.549 20.7608 10.9758 20.2882C9.57611 19.134 8.18111 17.9837 6.81097 16.8026L6.81089 16.8025C5.40107 15.5877 4.10934 14.2592 2.96224 12.8174C1.89944 11.481 1.03881 10.1064 0.69612 8.52521L0.695991 8.52462C0.403631 7.18349 0.436812 5.96364 0.805814 4.87223C1.17406 3.78306 1.88825 2.7875 3.01383 1.91024C6.09878 -0.494091 10.7736 0.273235 12.8877 3.47092C12.9451 3.55868 13.0041 3.64422 13.0875 3.76525L13.0884 3.76663Z" stroke="url(#paint1_linear)"/>
<path d="M50.5877 35.5512L51.0216 36.1847L51.4255 35.5317C52.5721 33.6776 53.9724 32.2037 55.7242 31.021L55.7243 31.0209C62.4851 26.4555 72.0021 28.319 76.3146 35.0468L76.3147 35.047C78.9364 39.1343 79.0458 43.4473 77.4574 47.9257L77.4573 47.9259C76.2354 51.3756 74.041 54.3055 71.5533 57.1092L71.5533 57.1093C67.4392 61.7474 62.7426 65.8321 57.8597 69.7587L57.8596 69.7587C56.1497 71.1339 54.4518 72.5238 52.7372 73.9275C52.1577 74.4019 51.5763 74.8779 50.9918 75.3554C50.8438 75.2357 50.6962 75.1166 50.5491 74.9979C50.0249 74.575 49.5063 74.1565 48.992 73.7284C47.8058 72.7369 46.617 71.7506 45.429 70.7648C42.524 68.3545 39.6235 65.9479 36.777 63.4789L36.7769 63.4788C33.829 60.9228 31.1261 58.126 28.7245 55.0888C26.5007 52.2753 24.6559 49.3282 23.9191 45.9075L23.919 45.9069C23.296 43.0316 23.36 40.3827 24.1629 37.9932C24.965 35.606 26.5159 33.4439 28.922 31.557C35.5634 26.3487 45.6181 28.0025 50.178 34.9439C50.2935 35.1215 50.4124 35.2952 50.5877 35.5512Z" stroke="url(#paint2_linear)"/>
<defs>
<linearGradient id="paint0_linear" x1="55" y1="117" x2="20" y2="117" gradientUnits="userSpaceOnUse">
<stop stop-color="#1B7F93"/>
<stop offset="1" stop-color="#1437DC"/>
</linearGradient>
<linearGradient id="paint1_linear" x1="27" y1="23" x2="0" y2="23" gradientUnits="userSpaceOnUse">
<stop stop-color="#1B7F93"/>
<stop offset="1" stop-color="#1437DC"/>
</linearGradient>
<linearGradient id="paint2_linear" x1="79" y1="75.9999" x2="23" y2="75.9999" gradientUnits="userSpaceOnUse">
<stop stop-color="#1B7F93"/>
<stop offset="1" stop-color="#1437DC"/>
</linearGradient>
</defs>
</svg>
