<svg width="25" height="25" viewBox="0 0 25 25" fill="none" xmlns="http://www.w3.org/2000/svg">
<path d="M0.000454265 12.5013C0.000454265 8.94619 -0.000386966 5.39104 0.0012955 1.83589C0.00171611 0.962137 0.508137 0.290735 1.33423 0.0711413C1.50121 0.0269701 1.67871 0.00299149 1.85158 0.00299149C8.94694 -0.000373936 16.0423 -0.000373936 23.1377 0.00046742C24.2178 0.00046742 24.9989 0.772832 24.9989 1.8464C25.0002 8.94282 25.0006 16.0392 24.9989 23.1357C24.9985 24.2168 24.209 24.9997 23.1263 24.9997C16.0448 25.0001 8.96335 25.0001 1.88229 24.9997C0.785743 24.9997 0.0012955 24.221 0.00087488 23.1243C-0.000807582 19.5835 0.000454265 16.0422 0.000454265 12.5013ZM13.3112 10.9192C13.3112 10.4791 13.3033 10.0387 13.315 9.59908C13.3205 9.40304 13.2658 9.32985 13.0576 9.33195C12.0221 9.3412 10.9865 9.3412 9.95095 9.33195C9.7499 9.33027 9.70615 9.40136 9.70658 9.5873C9.71078 13.4226 9.7112 17.2579 9.70573 21.0928C9.70531 21.288 9.76504 21.3406 9.95558 21.3389C10.928 21.3305 11.9009 21.3352 12.8734 21.3352C13.461 21.3352 13.461 21.3352 13.461 20.7567C13.461 18.9789 13.4543 17.2016 13.466 15.4238C13.469 14.9854 13.4984 14.5412 13.5741 14.11C13.7024 13.3801 14.0276 12.7655 14.7826 12.5009C15.0038 12.4235 15.2436 12.3785 15.4778 12.3621C16.3998 12.2986 17.1275 12.6233 17.3946 13.6077C17.4926 13.9682 17.5574 14.3498 17.5603 14.7225C17.5771 16.836 17.5729 18.9495 17.5683 21.063C17.5679 21.2683 17.6179 21.3419 17.8367 21.3398C18.9143 21.3288 19.9919 21.3347 21.0695 21.3347C21.366 21.3347 21.3669 21.3343 21.3669 21.0323C21.3673 18.9819 21.3694 16.9311 21.366 14.8807C21.3644 13.9144 21.3214 12.9506 21.0779 12.0087C20.7986 10.9272 20.2691 10.0101 19.2201 9.52378C17.9877 8.9525 16.6985 8.86962 15.3996 9.29241C14.518 9.57973 13.8316 10.135 13.3112 10.9192ZM3.66654 15.3384C3.66654 17.2554 3.66906 19.1725 3.66275 21.0891C3.66233 21.2784 3.71154 21.341 3.90839 21.3394C4.99274 21.3305 6.07709 21.3293 7.16101 21.3398C7.37679 21.3419 7.43231 21.2746 7.43189 21.0659C7.42642 17.2462 7.42642 13.426 7.43189 9.60623C7.43231 9.39589 7.37132 9.32985 7.15807 9.33153C6.09475 9.3412 5.03144 9.33574 3.96854 9.33616C3.66738 9.33616 3.66696 9.33658 3.66696 9.62937C3.66654 11.5325 3.66654 13.4352 3.66654 15.3384ZM7.73347 5.59843C7.7444 4.39151 6.78035 3.40922 5.56688 3.39071C4.38789 3.37304 3.38346 4.34986 3.37295 5.52481C3.36159 6.76076 4.31218 7.75104 5.52524 7.76661C6.72483 7.78259 7.72253 6.80283 7.73347 5.59843Z" fill="#0075B8"/>
</svg>
