<svg width="25" height="29" viewBox="0 0 25 29" fill="none" xmlns="http://www.w3.org/2000/svg">
<path d="M2.18541 5.57058C1.94046 5.57058 1.73464 5.65657 1.63072 5.8249C1.52353 5.99852 1.53983 6.22227 1.65395 6.44887L4.40417 11.2096C4.40865 11.2186 4.40865 11.2243 4.40417 11.2328L0.0823903 18.8591C-0.0300966 19.0837 -0.0247983 19.3091 0.0823903 19.4831C0.186319 19.6506 0.368906 19.7602 0.614258 19.7602H4.68172C5.2898 19.7602 5.58325 19.3498 5.7911 18.9749C5.7911 18.9749 10.0179 11.4998 10.1822 11.2092C10.1655 11.1823 7.38589 6.33272 7.38589 6.33272C7.18293 5.97203 6.87725 5.56976 6.25369 5.56976L2.18541 5.57058Z" fill="#005A5F"/>
<path d="M19.2737 0.000407561C18.666 0.000407561 18.4027 0.383108 18.1846 0.775182C18.1846 0.775182 9.42208 16.3151 9.13312 16.8254C9.14779 16.8531 14.9123 27.4285 14.9123 27.4285C15.1141 27.7892 15.4259 28.2032 16.049 28.2032H20.1116C20.3565 28.2032 20.5481 28.1111 20.6512 27.9432C20.7596 27.7696 20.7568 27.5401 20.6431 27.3148L14.9087 16.838C14.903 16.8298 14.903 16.8192 14.9087 16.8115L23.9146 0.888076C24.0279 0.663102 24.0303 0.434053 23.9231 0.260432C23.8196 0.0925164 23.6276 0 23.3827 0H19.2732V0.000407561H19.2737Z" fill="#D4D600"/>
</svg>
